  0
SECTION
  2
HEADER
  9
$ACADVER
  1
AC1014
  9
$HANDSEED
  5
FFFF
  9
$MEASUREMENT
 70
     1
  0
ENDSEC
  0
SECTION
  2
TABLES
  0
TABLE
  2
VPORT
  5
8
330
0
100
AcDbSymbolTable
 70
     4
  0
VPORT
  5
2E
330
8
100
AcDbSymbolTableRecord
100
AcDbViewportTableRecord
  2
*ACTIVE
 70
     0
 10
0.0
 20
0.0
 11
1.0
 21
1.0
 12
210.0
 22
148.5
 13
0.0
 23
0.0
 14
10.0
 24
10.0
 15
10.0
 25
10.0
 16
0.0
 26
0.0
 36
1.0
 17
0.0
 27
0.0
 37
0.0
 40
341.0
 41
1.24
 42
50.0
 43
0.0
 44
0.0
 50
0.0
 51
0.0
 71
     0
 72
   100
 73
     1
 74
     3
 75
     0
 76
     0
 77
     0
 78
     0
  0
ENDTAB
  0
TABLE
  2
LTYPE
  5
5
330
0
100
AcDbSymbolTable
 70
     1
  0
LTYPE
  5
14
330
5
100
AcDbSymbolTableRecord
100
AcDbLinetypeTableRecord
  2
BYBLOCK
 70
     0
  3

 72
    65
 73
     0
 40
0.0
  0
LTYPE
  5
15
330
5
100
AcDbSymbolTableRecord
100
AcDbLinetypeTableRecord
  2
BYLAYER
 70
     0
  3

 72
    65
 73
     0
 40
0.0
  0
LTYPE
  5
16
330
5
100
AcDbSymbolTableRecord
100
AcDbLinetypeTableRecord
  2
CONTINUOUS
 70
     0
  3
Solid line
 72
    65
 73
     0
 40
0.0
  0
ENDTAB
  0
TABLE
  2
LAYER
  5
2
100
AcDbSymbolTable
 70
2
  0
LAYER
  5
50
100
AcDbSymbolTableRecord
100
AcDbLayerTableRecord
  2
0
 70
0
  6
CONTINUOUS
  0
LAYER
  5
51
100
AcDbSymbolTableRecord
100
AcDbLayerTableRecord
  2
braids
 70
0
  6
CONTINUOUS
  0
ENDTAB
  0
TABLE
  2
STYLE
  5
3
330
0
100
AcDbSymbolTable
 70
     1
  0
STYLE
  5
11
330
3
100
AcDbSymbolTableRecord
100
AcDbTextStyleTableRecord
  2
STANDARD
 70
     0
 40
0.0
 41
1.0
 50
0.0
 71
     0
 42
2.5
  3
txt
  4

  0
ENDTAB
  0
TABLE
  2
VIEW
  5
6
330
0
100
AcDbSymbolTable
 70
     0
  0
ENDTAB
  0
TABLE
  2
UCS
  5
7
330
0
100
AcDbSymbolTable
 70
     0
  0
ENDTAB
  0
TABLE
  2
APPID
  5
9
330
0
100
AcDbSymbolTable
 70
     2
  0
APPID
  5
12
330
9
100
AcDbSymbolTableRecord
100
AcDbRegAppTableRecord
  2
ACAD
 70
     0
  0
ENDTAB
  0
TABLE
  2
DIMSTYLE
  5
A
330
0
100
AcDbSymbolTable
 70
     1
  0
DIMSTYLE
105
27
330
A
100
AcDbSymbolTableRecord
100
AcDbDimStyleTableRecord
  2
ISO-25
 70
     0
  3

  4

  5

  6

  7

 40
1.0
 41
2.5
 42
0.625
 43
3.75
 44
1.25
 45
0.0
 46
0.0
 47
0.0
 48
0.0
140
2.5
141
2.5
142
0.0
143
0.03937007874016
144
1.0
145
0.0
146
1.0
147
0.625
 71
     0
 72
     0
 73
     0
 74
     0
 75
     0
 76
     0
 77
     1
 78
     8
170
     0
171
     3
172
     1
173
     0
174
     0
175
     0
176
     0
177
     0
178
     0
270
     2
271
     2
272
     2
273
     2
274
     3
340
11
275
     0
280
     0
281
     0
282
     0
283
     0
284
     8
285
     0
286
     0
287
     3
288
     0
  0
ENDTAB
  0
TABLE
  2
BLOCK_RECORD
  5
1
330
0
100
AcDbSymbolTable
 70
     1
  0
BLOCK_RECORD
  5
1F
330
1
100
AcDbSymbolTableRecord
100
AcDbBlockTableRecord
  2
*MODEL_SPACE
  0
BLOCK_RECORD
  5
1B
330
1
100
AcDbSymbolTableRecord
100
AcDbBlockTableRecord
  2
*PAPER_SPACE
  0
ENDTAB
  0
ENDSEC
  0
SECTION
  2
BLOCKS
  0
BLOCK
  5
20
330
1F
100
AcDbEntity
  8
0
100
AcDbBlockBegin
  2
*MODEL_SPACE
 70
     0
 10
0.0
 20
0.0
 30
0.0
  3
*MODEL_SPACE
  1

  0
ENDBLK
  5
21
330
1F
100
AcDbEntity
  8
0
100
AcDbBlockEnd
  0
BLOCK
  5
1C
330
1B
100
AcDbEntity
 67
     1
  8
0
100
AcDbBlockBegin
  2
*PAPER_SPACE
  1

  0
ENDBLK
  5
1D
330
1B
100
AcDbEntity
 67
     1
  8
0
100
AcDbBlockEnd
  0
ENDSEC
  0
SECTION
  2
ENTITIES
  0
SPLINE
  5
100
100
AcDbEntity
  8
braids
 62
1
100
AcDbSpline
 70
8
 71
3
 72
8
 73
4
 74
0
 40
0
 40
0
 40
0
 40
0
 40
1
 40
1
 40
1
 40
1
 10
92.887085
 20
145.974399
 30
0.0
 10
92.887085
 20
145.076781
 30
0.0
 10
92.530324
 20
144.215927
 30
0.0
 10
91.895285
 20
143.581215
 30
0.0
  0
SPLINE
  5
101
100
AcDbEntity
  8
braids
 62
1
100
AcDbSpline
 70
8
 71
3
 72
8
 73
4
 74
0
 40
0
 40
0
 40
0
 40
0
 40
1
 40
1
 40
1
 40
1
 10
91.895285
 20
143.581215
 30
0.0
 10
91.260245
 20
142.946503
 30
0.0
 10
90.398947
 20
142.589925
 30
0.0
 10
89.500866
 20
142.589925
 30
0.0
  0
SPLINE
  5
102
100
AcDbEntity
  8
braids
 62
1
100
AcDbSpline
 70
8
 71
3
 72
8
 73
4
 74
0
 40
0
 40
0
 40
0
 40
0
 40
1
 40
1
 40
1
 40
1
 10
89.500866
 20
142.589925
 30
0.0
 10
87.630709
 20
142.589925
 30
0.0
 10
86.114647
 20
144.105206
 30
0.0
 10
86.114647
 20
145.974399
 30
0.0
  0
SPLINE
  5
103
100
AcDbEntity
  8
braids
 62
1
100
AcDbSpline
 70
8
 71
3
 72
8
 73
4
 74
0
 40
0
 40
0
 40
0
 40
0
 40
1
 40
1
 40
1
 40
1
 10
86.114647
 20
145.974399
 30
0.0
 10
86.114647
 20
147.843592
 30
0.0
 10
87.630709
 20
149.358872
 30
0.0
 10
89.500866
 20
149.358873
 30
0.0
  0
SPLINE
  5
104
100
AcDbEntity
  8
braids
 62
1
100
AcDbSpline
 70
8
 71
3
 72
8
 73
4
 74
0
 40
0
 40
0
 40
0
 40
0
 40
1
 40
1
 40
1
 40
1
 10
89.500866
 20
149.358873
 30
0.0
 10
90.398947
 20
149.358873
 30
0.0
 10
91.260245
 20
149.002295
 30
0.0
 10
91.895285
 20
148.367583
 30
0.0
  0
SPLINE
  5
105
100
AcDbEntity
  8
braids
 62
1
100
AcDbSpline
 70
8
 71
3
 72
8
 73
4
 74
0
 40
0
 40
0
 40
0
 40
0
 40
1
 40
1
 40
1
 40
1
 10
91.895285
 20
148.367583
 30
0.0
 10
92.530324
 20
147.732871
 30
0.0
 10
92.887085
 20
146.872017
 30
0.0
 10
92.887085
 20
145.974399
 30
0.0
  0
LWPOLYLINE
  5
106
100
AcDbEntity
  8
braids
 62
1
100
AcDbPolyline
 90
5
 70
1
 10
28.829503
 20
224.081706
 30
0.0
 10
99.830280
 20
224.081706
 30
0.0
 10
99.830280
 20
95.863620
 30
0.0
 10
28.829503
 20
95.863620
 30
0.0
 10
28.829503
 20
224.081706
 30
0.0
  0
SPLINE
  5
107
100
AcDbEntity
  8
braids
 62
1
100
AcDbSpline
 70
8
 71
3
 72
8
 73
4
 74
0
 40
0
 40
0
 40
0
 40
0
 40
1
 40
1
 40
1
 40
1
 10
59.840643
 20
145.974399
 30
0.0
 10
59.840643
 20
145.076781
 30
0.0
 10
59.483881
 20
144.215927
 30
0.0
 10
58.848842
 20
143.581215
 30
0.0
  0
SPLINE
  5
108
100
AcDbEntity
  8
braids
 62
1
100
AcDbSpline
 70
8
 71
3
 72
8
 73
4
 74
0
 40
0
 40
0
 40
0
 40
0
 40
1
 40
1
 40
1
 40
1
 10
58.848842
 20
143.581215
 30
0.0
 10
58.213803
 20
142.946503
 30
0.0
 10
57.352505
 20
142.589925
 30
0.0
 10
56.454423
 20
142.589925
 30
0.0
  0
SPLINE
  5
109
100
AcDbEntity
  8
braids
 62
1
100
AcDbSpline
 70
8
 71
3
 72
8
 73
4
 74
0
 40
0
 40
0
 40
0
 40
0
 40
1
 40
1
 40
1
 40
1
 10
56.454423
 20
142.589925
 30
0.0
 10
54.584266
 20
142.589925
 30
0.0
 10
53.068204
 20
144.105206
 30
0.0
 10
53.068204
 20
145.974399
 30
0.0
  0
SPLINE
  5
10a
100
AcDbEntity
  8
braids
 62
1
100
AcDbSpline
 70
8
 71
3
 72
8
 73
4
 74
0
 40
0
 40
0
 40
0
 40
0
 40
1
 40
1
 40
1
 40
1
 10
53.068204
 20
145.974399
 30
0.0
 10
53.068204
 20
147.843592
 30
0.0
 10
54.584266
 20
149.358872
 30
0.0
 10
56.454423
 20
149.358873
 30
0.0
  0
SPLINE
  5
10b
100
AcDbEntity
  8
braids
 62
1
100
AcDbSpline
 70
8
 71
3
 72
8
 73
4
 74
0
 40
0
 40
0
 40
0
 40
0
 40
1
 40
1
 40
1
 40
1
 10
56.454423
 20
149.358873
 30
0.0
 10
57.352505
 20
149.358873
 30
0.0
 10
58.213803
 20
149.002295
 30
0.0
 10
58.848842
 20
148.367583
 30
0.0
  0
SPLINE
  5
10c
100
AcDbEntity
  8
braids
 62
1
100
AcDbSpline
 70
8
 71
3
 72
8
 73
4
 74
0
 40
0
 40
0
 40
0
 40
0
 40
1
 40
1
 40
1
 40
1
 10
58.848842
 20
148.367583
 30
0.0
 10
59.483881
 20
147.732871
 30
0.0
 10
59.840643
 20
146.872017
 30
0.0
 10
59.840643
 20
145.974399
 30
0.0
  0
LWPOLYLINE
  5
10d
100
AcDbEntity
  8
braids
 62
1
100
AcDbPolyline
 90
2
 70
1
 10
92.887085
 20
145.974399
 30
0.0
 10
92.887085
 20
145.974399
 30
0.0
  0
SPLINE
  5
10e
100
AcDbEntity
  8
braids
 62
1
100
AcDbSpline
 70
8
 71
3
 72
8
 73
4
 74
0
 40
0
 40
0
 40
0
 40
0
 40
1
 40
1
 40
1
 40
1
 10
43.664810
 20
164.956304
 30
0.0
 10
43.664810
 20
162.953597
 30
0.0
 10
42.040458
 20
161.330082
 30
0.0
 10
40.036718
 20
161.330082
 30
0.0
  0
SPLINE
  5
10f
100
AcDbEntity
  8
braids
 62
1
100
AcDbSpline
 70
8
 71
3
 72
8
 73
4
 74
0
 40
0
 40
0
 40
0
 40
0
 40
1
 40
1
 40
1
 40
1
 10
40.036718
 20
161.330082
 30
0.0
 10
38.032978
 20
161.330082
 30
0.0
 10
36.408626
 20
162.953597
 30
0.0
 10
36.408626
 20
164.956304
 30
0.0
  0
SPLINE
  5
110
100
AcDbEntity
  8
braids
 62
1
100
AcDbSpline
 70
8
 71
3
 72
8
 73
4
 74
0
 40
0
 40
0
 40
0
 40
0
 40
1
 40
1
 40
1
 40
1
 10
36.408626
 20
164.956304
 30
0.0
 10
36.408626
 20
166.959011
 30
0.0
 10
38.032978
 20
168.582525
 30
0.0
 10
40.036718
 20
168.582525
 30
0.0
  0
SPLINE
  5
111
100
AcDbEntity
  8
braids
 62
1
100
AcDbSpline
 70
8
 71
3
 72
8
 73
4
 74
0
 40
0
 40
0
 40
0
 40
0
 40
1
 40
1
 40
1
 40
1
 10
40.036718
 20
168.582525
 30
0.0
 10
42.040458
 20
168.582525
 30
0.0
 10
43.664810
 20
166.959011
 30
0.0
 10
43.664810
 20
164.956304
 30
0.0
  0
LWPOLYLINE
  5
112
100
AcDbEntity
  8
braids
 62
1
100
AcDbPolyline
 90
2
 70
1
 10
59.840643
 20
145.974399
 30
0.0
 10
59.840643
 20
145.974399
 30
0.0
  0
SPLINE
  5
113
100
AcDbEntity
  8
braids
 62
1
100
AcDbSpline
 70
8
 71
3
 72
8
 73
4
 74
0
 40
0
 40
0
 40
0
 40
0
 40
1
 40
1
 40
1
 40
1
 10
41.577257
 20
181.456304
 30
0.0
 10
41.577257
 20
181.047969
 30
0.0
 10
41.414951
 20
180.656359
 30
0.0
 10
41.126044
 20
180.367623
 30
0.0
  0
SPLINE
  5
114
100
AcDbEntity
  8
braids
 62
1
100
AcDbSpline
 70
8
 71
3
 72
8
 73
4
 74
0
 40
0
 40
0
 40
0
 40
0
 40
1
 40
1
 40
1
 40
1
 10
41.126044
 20
180.367623
 30
0.0
 10
40.837136
 20
180.078887
 30
0.0
 10
40.445294
 20
179.916677
 30
0.0
 10
40.036718
 20
179.916677
 30
0.0
  0
SPLINE
  5
115
100
AcDbEntity
  8
braids
 62
1
100
AcDbSpline
 70
8
 71
3
 72
8
 73
4
 74
0
 40
0
 40
0
 40
0
 40
0
 40
1
 40
1
 40
1
 40
1
 10
40.036718
 20
179.916677
 30
0.0
 10
39.185902
 20
179.916677
 30
0.0
 10
38.496179
 20
180.605991
 30
0.0
 10
38.496179
 20
181.456304
 30
0.0
  0
SPLINE
  5
116
100
AcDbEntity
  8
braids
 62
1
100
AcDbSpline
 70
8
 71
3
 72
8
 73
4
 74
0
 40
0
 40
0
 40
0
 40
0
 40
1
 40
1
 40
1
 40
1
 10
38.496179
 20
181.456304
 30
0.0
 10
38.496179
 20
181.864638
 30
0.0
 10
38.658485
 20
182.256248
 30
0.0
 10
38.947392
 20
182.544984
 30
0.0
  0
SPLINE
  5
117
100
AcDbEntity
  8
braids
 62
1
100
AcDbSpline
 70
8
 71
3
 72
8
 73
4
 74
0
 40
0
 40
0
 40
0
 40
0
 40
1
 40
1
 40
1
 40
1
 10
38.947392
 20
182.544984
 30
0.0
 10
39.236299
 20
182.833720
 30
0.0
 10
39.628142
 20
182.995930
 30
0.0
 10
40.036718
 20
182.995930
 30
0.0
  0
SPLINE
  5
118
100
AcDbEntity
  8
braids
 62
1
100
AcDbSpline
 70
8
 71
3
 72
8
 73
4
 74
0
 40
0
 40
0
 40
0
 40
0
 40
1
 40
1
 40
1
 40
1
 10
40.036718
 20
182.995930
 30
0.0
 10
40.445294
 20
182.995931
 30
0.0
 10
40.837137
 20
182.833720
 30
0.0
 10
41.126044
 20
182.544984
 30
0.0
  0
SPLINE
  5
119
100
AcDbEntity
  8
braids
 62
1
100
AcDbSpline
 70
8
 71
3
 72
8
 73
4
 74
0
 40
0
 40
0
 40
0
 40
0
 40
1
 40
1
 40
1
 40
1
 10
41.126044
 20
182.544984
 30
0.0
 10
41.414951
 20
182.256248
 30
0.0
 10
41.577257
 20
181.864638
 30
0.0
 10
41.577257
 20
181.456304
 30
0.0
  0
LWPOLYLINE
  5
11a
100
AcDbEntity
  8
braids
 62
1
100
AcDbPolyline
 90
2
 70
1
 10
43.664810
 20
164.956304
 30
0.0
 10
43.664810
 20
164.956304
 30
0.0
  0
SPLINE
  5
11b
100
AcDbEntity
  8
braids
 62
1
100
AcDbSpline
 70
8
 71
3
 72
8
 73
4
 74
0
 40
0
 40
0
 40
0
 40
0
 40
1
 40
1
 40
1
 40
1
 10
34.923114
 20
99.030493
 30
0.0
 10
34.923114
 20
98.622158
 30
0.0
 10
34.760808
 20
98.230547
 30
0.0
 10
34.471901
 20
97.941810
 30
0.0
  0
SPLINE
  5
11c
100
AcDbEntity
  8
braids
 62
1
100
AcDbSpline
 70
8
 71
3
 72
8
 73
4
 74
0
 40
0
 40
0
 40
0
 40
0
 40
1
 40
1
 40
1
 40
1
 10
34.471901
 20
97.941810
 30
0.0
 10
34.182994
 20
97.653073
 30
0.0
 10
33.791151
 20
97.490863
 30
0.0
 10
33.382574
 20
97.490863
 30
0.0
  0
SPLINE
  5
11d
100
AcDbEntity
  8
braids
 62
1
100
AcDbSpline
 70
8
 71
3
 72
8
 73
4
 74
0
 40
0
 40
0
 40
0
 40
0
 40
1
 40
1
 40
1
 40
1
 10
33.382574
 20
97.490863
 30
0.0
 10
32.973997
 20
97.490863
 30
0.0
 10
32.582155
 20
97.653073
 30
0.0
 10
32.293248
 20
97.941810
 30
0.0
  0
SPLINE
  5
11e
100
AcDbEntity
  8
braids
 62
1
100
AcDbSpline
 70
8
 71
3
 72
8
 73
4
 74
0
 40
0
 40
0
 40
0
 40
0
 40
1
 40
1
 40
1
 40
1
 10
32.293248
 20
97.941810
 30
0.0
 10
32.004341
 20
98.230547
 30
0.0
 10
31.842035
 20
98.622158
 30
0.0
 10
31.842035
 20
99.030493
 30
0.0
  0
SPLINE
  5
11f
100
AcDbEntity
  8
braids
 62
1
100
AcDbSpline
 70
8
 71
3
 72
8
 73
4
 74
0
 40
0
 40
0
 40
0
 40
0
 40
1
 40
1
 40
1
 40
1
 10
31.842035
 20
99.030493
 30
0.0
 10
31.842036
 20
99.880805
 30
0.0
 10
32.531758
 20
100.570119
 30
0.0
 10
33.382574
 20
100.570119
 30
0.0
  0
SPLINE
  5
120
100
AcDbEntity
  8
braids
 62
1
100
AcDbSpline
 70
8
 71
3
 72
8
 73
4
 74
0
 40
0
 40
0
 40
0
 40
0
 40
1
 40
1
 40
1
 40
1
 10
33.382574
 20
100.570119
 30
0.0
 10
34.233390
 20
100.570119
 30
0.0
 10
34.923113
 20
99.880805
 30
0.0
 10
34.923114
 20
99.030493
 30
0.0
  0
LWPOLYLINE
  5
121
100
AcDbEntity
  8
braids
 62
1
100
AcDbPolyline
 90
2
 70
1
 10
41.577257
 20
181.456304
 30
0.0
 10
41.577257
 20
181.456304
 30
0.0
  0
SPLINE
  5
122
100
AcDbEntity
  8
braids
 62
1
100
AcDbSpline
 70
8
 71
3
 72
8
 73
4
 74
0
 40
0
 40
0
 40
0
 40
0
 40
1
 40
1
 40
1
 40
1
 10
34.923114
 20
221.130495
 30
0.0
 10
34.923114
 20
220.722160
 30
0.0
 10
34.760808
 20
220.330549
 30
0.0
 10
34.471901
 20
220.041812
 30
0.0
  0
SPLINE
  5
123
100
AcDbEntity
  8
braids
 62
1
100
AcDbSpline
 70
8
 71
3
 72
8
 73
4
 74
0
 40
0
 40
0
 40
0
 40
0
 40
1
 40
1
 40
1
 40
1
 10
34.471901
 20
220.041812
 30
0.0
 10
34.182994
 20
219.753076
 30
0.0
 10
33.791151
 20
219.590865
 30
0.0
 10
33.382574
 20
219.590865
 30
0.0
  0
SPLINE
  5
124
100
AcDbEntity
  8
braids
 62
1
100
AcDbSpline
 70
8
 71
3
 72
8
 73
4
 74
0
 40
0
 40
0
 40
0
 40
0
 40
1
 40
1
 40
1
 40
1
 10
33.382574
 20
219.590865
 30
0.0
 10
32.973997
 20
219.590865
 30
0.0
 10
32.582155
 20
219.753076
 30
0.0
 10
32.293248
 20
220.041813
 30
0.0
  0
SPLINE
  5
125
100
AcDbEntity
  8
braids
 62
1
100
AcDbSpline
 70
8
 71
3
 72
8
 73
4
 74
0
 40
0
 40
0
 40
0
 40
0
 40
1
 40
1
 40
1
 40
1
 10
32.293248
 20
220.041813
 30
0.0
 10
32.004341
 20
220.330549
 30
0.0
 10
31.842035
 20
220.722160
 30
0.0
 10
31.842035
 20
221.130495
 30
0.0
  0
SPLINE
  5
126
100
AcDbEntity
  8
braids
 62
1
100
AcDbSpline
 70
8
 71
3
 72
8
 73
4
 74
0
 40
0
 40
0
 40
0
 40
0
 40
1
 40
1
 40
1
 40
1
 10
31.842035
 20
221.130495
 30
0.0
 10
31.842036
 20
221.980807
 30
0.0
 10
32.531758
 20
222.670121
 30
0.0
 10
33.382574
 20
222.670121
 30
0.0
  0
SPLINE
  5
127
100
AcDbEntity
  8
braids
 62
1
100
AcDbSpline
 70
8
 71
3
 72
8
 73
4
 74
0
 40
0
 40
0
 40
0
 40
0
 40
1
 40
1
 40
1
 40
1
 10
33.382574
 20
222.670121
 30
0.0
 10
34.233390
 20
222.670121
 30
0.0
 10
34.923113
 20
221.980807
 30
0.0
 10
34.923114
 20
221.130495
 30
0.0
  0
LWPOLYLINE
  5
128
100
AcDbEntity
  8
braids
 62
1
100
AcDbPolyline
 90
2
 70
1
 10
34.923114
 20
99.030493
 30
0.0
 10
34.923114
 20
99.030493
 30
0.0
  0
SPLINE
  5
129
100
AcDbEntity
  8
braids
 62
1
100
AcDbSpline
 70
8
 71
3
 72
8
 73
4
 74
0
 40
0
 40
0
 40
0
 40
0
 40
1
 40
1
 40
1
 40
1
 10
96.923124
 20
99.030493
 30
0.0
 10
96.923124
 20
98.622157
 30
0.0
 10
96.760818
 20
98.230546
 30
0.0
 10
96.471911
 20
97.941809
 30
0.0
  0
SPLINE
  5
12a
100
AcDbEntity
  8
braids
 62
1
100
AcDbSpline
 70
8
 71
3
 72
8
 73
4
 74
0
 40
0
 40
0
 40
0
 40
0
 40
1
 40
1
 40
1
 40
1
 10
96.471911
 20
97.941809
 30
0.0
 10
96.183003
 20
97.653073
 30
0.0
 10
95.791160
 20
97.490862
 30
0.0
 10
95.382583
 20
97.490863
 30
0.0
  0
SPLINE
  5
12b
100
AcDbEntity
  8
braids
 62
1
100
AcDbSpline
 70
8
 71
3
 72
8
 73
4
 74
0
 40
0
 40
0
 40
0
 40
0
 40
1
 40
1
 40
1
 40
1
 10
95.382583
 20
97.490863
 30
0.0
 10
94.974006
 20
97.490863
 30
0.0
 10
94.582164
 20
97.653074
 30
0.0
 10
94.293257
 20
97.941811
 30
0.0
  0
SPLINE
  5
12c
100
AcDbEntity
  8
braids
 62
1
100
AcDbSpline
 70
8
 71
3
 72
8
 73
4
 74
0
 40
0
 40
0
 40
0
 40
0
 40
1
 40
1
 40
1
 40
1
 10
94.293257
 20
97.941811
 30
0.0
 10
94.004350
 20
98.230547
 30
0.0
 10
93.842044
 20
98.622158
 30
0.0
 10
93.842045
 20
99.030493
 30
0.0
  0
SPLINE
  5
12d
100
AcDbEntity
  8
braids
 62
1
100
AcDbSpline
 70
8
 71
3
 72
8
 73
4
 74
0
 40
0
 40
0
 40
0
 40
0
 40
1
 40
1
 40
1
 40
1
 10
93.842045
 20
99.030493
 30
0.0
 10
93.842045
 20
99.880804
 30
0.0
 10
94.531767
 20
100.570118
 30
0.0
 10
95.382583
 20
100.570119
 30
0.0
  0
SPLINE
  5
12e
100
AcDbEntity
  8
braids
 62
1
100
AcDbSpline
 70
8
 71
3
 72
8
 73
4
 74
0
 40
0
 40
0
 40
0
 40
0
 40
1
 40
1
 40
1
 40
1
 10
95.382583
 20
100.570119
 30
0.0
 10
95.791159
 20
100.570119
 30
0.0
 10
96.183002
 20
100.407909
 30
0.0
 10
96.471909
 20
100.119173
 30
0.0
  0
SPLINE
  5
12f
100
AcDbEntity
  8
braids
 62
1
100
AcDbSpline
 70
8
 71
3
 72
8
 73
4
 74
0
 40
0
 40
0
 40
0
 40
0
 40
1
 40
1
 40
1
 40
1
 10
96.471909
 20
100.119173
 30
0.0
 10
96.760817
 20
99.830438
 30
0.0
 10
96.923123
 20
99.438827
 30
0.0
 10
96.923124
 20
99.030493
 30
0.0
  0
LWPOLYLINE
  5
130
100
AcDbEntity
  8
braids
 62
1
100
AcDbPolyline
 90
2
 70
1
 10
34.923114
 20
221.130495
 30
0.0
 10
34.923114
 20
221.130495
 30
0.0
  0
SPLINE
  5
131
100
AcDbEntity
  8
braids
 62
1
100
AcDbSpline
 70
8
 71
3
 72
8
 73
4
 74
0
 40
0
 40
0
 40
0
 40
0
 40
1
 40
1
 40
1
 40
1
 10
96.923124
 20
221.130495
 30
0.0
 10
96.923124
 20
220.722160
 30
0.0
 10
96.760818
 20
220.330549
 30
0.0
 10
96.471911
 20
220.041812
 30
0.0
  0
SPLINE
  5
132
100
AcDbEntity
  8
braids
 62
1
100
AcDbSpline
 70
8
 71
3
 72
8
 73
4
 74
0
 40
0
 40
0
 40
0
 40
0
 40
1
 40
1
 40
1
 40
1
 10
96.471911
 20
220.041812
 30
0.0
 10
96.183003
 20
219.753075
 30
0.0
 10
95.791160
 20
219.590865
 30
0.0
 10
95.382583
 20
219.590865
 30
0.0
  0
SPLINE
  5
133
100
AcDbEntity
  8
braids
 62
1
100
AcDbSpline
 70
8
 71
3
 72
8
 73
4
 74
0
 40
0
 40
0
 40
0
 40
0
 40
1
 40
1
 40
1
 40
1
 10
95.382583
 20
219.590865
 30
0.0
 10
94.974006
 20
219.590866
 30
0.0
 10
94.582164
 20
219.753076
 30
0.0
 10
94.293257
 20
220.041813
 30
0.0
  0
SPLINE
  5
134
100
AcDbEntity
  8
braids
 62
1
100
AcDbSpline
 70
8
 71
3
 72
8
 73
4
 74
0
 40
0
 40
0
 40
0
 40
0
 40
1
 40
1
 40
1
 40
1
 10
94.293257
 20
220.041813
 30
0.0
 10
94.004350
 20
220.330550
 30
0.0
 10
93.842044
 20
220.722160
 30
0.0
 10
93.842045
 20
221.130495
 30
0.0
  0
SPLINE
  5
135
100
AcDbEntity
  8
braids
 62
1
100
AcDbSpline
 70
8
 71
3
 72
8
 73
4
 74
0
 40
0
 40
0
 40
0
 40
0
 40
1
 40
1
 40
1
 40
1
 10
93.842045
 20
221.130495
 30
0.0
 10
93.842045
 20
221.980807
 30
0.0
 10
94.531767
 20
222.670120
 30
0.0
 10
95.382583
 20
222.670121
 30
0.0
  0
SPLINE
  5
136
100
AcDbEntity
  8
braids
 62
1
100
AcDbSpline
 70
8
 71
3
 72
8
 73
4
 74
0
 40
0
 40
0
 40
0
 40
0
 40
1
 40
1
 40
1
 40
1
 10
95.382583
 20
222.670121
 30
0.0
 10
95.791159
 20
222.670122
 30
0.0
 10
96.183002
 20
222.507912
 30
0.0
 10
96.471909
 20
222.219176
 30
0.0
  0
SPLINE
  5
137
100
AcDbEntity
  8
braids
 62
1
100
AcDbSpline
 70
8
 71
3
 72
8
 73
4
 74
0
 40
0
 40
0
 40
0
 40
0
 40
1
 40
1
 40
1
 40
1
 10
96.471909
 20
222.219176
 30
0.0
 10
96.760817
 20
221.930440
 30
0.0
 10
96.923123
 20
221.538830
 30
0.0
 10
96.923124
 20
221.130495
 30
0.0
  0
LWPOLYLINE
  5
138
100
AcDbEntity
  8
braids
 62
1
100
AcDbPolyline
 90
2
 70
1
 10
96.923124
 20
99.030493
 30
0.0
 10
96.923124
 20
99.030493
 30
0.0
  0
SPLINE
  5
139
100
AcDbEntity
  8
braids
 62
1
100
AcDbSpline
 70
8
 71
3
 72
8
 73
4
 74
0
 40
0
 40
0
 40
0
 40
0
 40
1
 40
1
 40
1
 40
1
 10
76.705749
 20
164.903387
 30
0.0
 10
76.705749
 20
162.900680
 30
0.0
 10
75.081397
 20
161.277165
 30
0.0
 10
73.077657
 20
161.277165
 30
0.0
  0
SPLINE
  5
13a
100
AcDbEntity
  8
braids
 62
1
100
AcDbSpline
 70
8
 71
3
 72
8
 73
4
 74
0
 40
0
 40
0
 40
0
 40
0
 40
1
 40
1
 40
1
 40
1
 10
73.077657
 20
161.277165
 30
0.0
 10
71.073917
 20
161.277165
 30
0.0
 10
69.449565
 20
162.900680
 30
0.0
 10
69.449565
 20
164.903387
 30
0.0
  0
SPLINE
  5
13b
100
AcDbEntity
  8
braids
 62
1
100
AcDbSpline
 70
8
 71
3
 72
8
 73
4
 74
0
 40
0
 40
0
 40
0
 40
0
 40
1
 40
1
 40
1
 40
1
 10
69.449565
 20
164.903387
 30
0.0
 10
69.449565
 20
166.906094
 30
0.0
 10
71.073917
 20
168.529609
 30
0.0
 10
73.077657
 20
168.529609
 30
0.0
  0
SPLINE
  5
13c
100
AcDbEntity
  8
braids
 62
1
100
AcDbSpline
 70
8
 71
3
 72
8
 73
4
 74
0
 40
0
 40
0
 40
0
 40
0
 40
1
 40
1
 40
1
 40
1
 10
73.077657
 20
168.529609
 30
0.0
 10
75.081397
 20
168.529609
 30
0.0
 10
76.705749
 20
166.906094
 30
0.0
 10
76.705749
 20
164.903387
 30
0.0
  0
LWPOLYLINE
  5
13d
100
AcDbEntity
  8
braids
 62
1
100
AcDbPolyline
 90
2
 70
1
 10
96.923124
 20
221.130495
 30
0.0
 10
96.923124
 20
221.130495
 30
0.0
  0
SPLINE
  5
13e
100
AcDbEntity
  8
braids
 62
1
100
AcDbSpline
 70
8
 71
3
 72
8
 73
4
 74
0
 40
0
 40
0
 40
0
 40
0
 40
1
 40
1
 40
1
 40
1
 10
92.887085
 20
184.007141
 30
0.0
 10
92.887085
 20
183.109523
 30
0.0
 10
92.530324
 20
182.248669
 30
0.0
 10
91.895285
 20
181.613957
 30
0.0
  0
SPLINE
  5
13f
100
AcDbEntity
  8
braids
 62
1
100
AcDbSpline
 70
8
 71
3
 72
8
 73
4
 74
0
 40
0
 40
0
 40
0
 40
0
 40
1
 40
1
 40
1
 40
1
 10
91.895285
 20
181.613957
 30
0.0
 10
91.260245
 20
180.979245
 30
0.0
 10
90.398947
 20
180.622668
 30
0.0
 10
89.500866
 20
180.622668
 30
0.0
  0
SPLINE
  5
140
100
AcDbEntity
  8
braids
 62
1
100
AcDbSpline
 70
8
 71
3
 72
8
 73
4
 74
0
 40
0
 40
0
 40
0
 40
0
 40
1
 40
1
 40
1
 40
1
 10
89.500866
 20
180.622668
 30
0.0
 10
87.630709
 20
180.622668
 30
0.0
 10
86.114647
 20
182.137948
 30
0.0
 10
86.114647
 20
184.007141
 30
0.0
  0
SPLINE
  5
141
100
AcDbEntity
  8
braids
 62
1
100
AcDbSpline
 70
8
 71
3
 72
8
 73
4
 74
0
 40
0
 40
0
 40
0
 40
0
 40
1
 40
1
 40
1
 40
1
 10
86.114647
 20
184.007141
 30
0.0
 10
86.114647
 20
185.876334
 30
0.0
 10
87.630709
 20
187.391615
 30
0.0
 10
89.500866
 20
187.391615
 30
0.0
  0
SPLINE
  5
142
100
AcDbEntity
  8
braids
 62
1
100
AcDbSpline
 70
8
 71
3
 72
8
 73
4
 74
0
 40
0
 40
0
 40
0
 40
0
 40
1
 40
1
 40
1
 40
1
 10
89.500866
 20
187.391615
 30
0.0
 10
90.398947
 20
187.391615
 30
0.0
 10
91.260245
 20
187.035037
 30
0.0
 10
91.895285
 20
186.400326
 30
0.0
  0
SPLINE
  5
143
100
AcDbEntity
  8
braids
 62
1
100
AcDbSpline
 70
8
 71
3
 72
8
 73
4
 74
0
 40
0
 40
0
 40
0
 40
0
 40
1
 40
1
 40
1
 40
1
 10
91.895285
 20
186.400326
 30
0.0
 10
92.530324
 20
185.765614
 30
0.0
 10
92.887085
 20
184.904759
 30
0.0
 10
92.887085
 20
184.007141
 30
0.0
  0
LWPOLYLINE
  5
144
100
AcDbEntity
  8
braids
 62
1
100
AcDbPolyline
 90
2
 70
1
 10
76.705749
 20
164.903387
 30
0.0
 10
76.705749
 20
164.903387
 30
0.0
  0
SPLINE
  5
145
100
AcDbEntity
  8
braids
 62
1
100
AcDbSpline
 70
8
 71
3
 72
8
 73
4
 74
0
 40
0
 40
0
 40
0
 40
0
 40
1
 40
1
 40
1
 40
1
 10
59.840643
 20
184.007141
 30
0.0
 10
59.840643
 20
183.109523
 30
0.0
 10
59.483881
 20
182.248669
 30
0.0
 10
58.848842
 20
181.613957
 30
0.0
  0
SPLINE
  5
146
100
AcDbEntity
  8
braids
 62
1
100
AcDbSpline
 70
8
 71
3
 72
8
 73
4
 74
0
 40
0
 40
0
 40
0
 40
0
 40
1
 40
1
 40
1
 40
1
 10
58.848842
 20
181.613957
 30
0.0
 10
58.213803
 20
180.979245
 30
0.0
 10
57.352505
 20
180.622668
 30
0.0
 10
56.454423
 20
180.622668
 30
0.0
  0
SPLINE
  5
147
100
AcDbEntity
  8
braids
 62
1
100
AcDbSpline
 70
8
 71
3
 72
8
 73
4
 74
0
 40
0
 40
0
 40
0
 40
0
 40
1
 40
1
 40
1
 40
1
 10
56.454423
 20
180.622668
 30
0.0
 10
54.584266
 20
180.622668
 30
0.0
 10
53.068204
 20
182.137948
 30
0.0
 10
53.068204
 20
184.007141
 30
0.0
  0
SPLINE
  5
148
100
AcDbEntity
  8
braids
 62
1
100
AcDbSpline
 70
8
 71
3
 72
8
 73
4
 74
0
 40
0
 40
0
 40
0
 40
0
 40
1
 40
1
 40
1
 40
1
 10
53.068204
 20
184.007141
 30
0.0
 10
53.068204
 20
185.876334
 30
0.0
 10
54.584266
 20
187.391615
 30
0.0
 10
56.454423
 20
187.391615
 30
0.0
  0
SPLINE
  5
149
100
AcDbEntity
  8
braids
 62
1
100
AcDbSpline
 70
8
 71
3
 72
8
 73
4
 74
0
 40
0
 40
0
 40
0
 40
0
 40
1
 40
1
 40
1
 40
1
 10
56.454423
 20
187.391615
 30
0.0
 10
57.352505
 20
187.391615
 30
0.0
 10
58.213803
 20
187.035037
 30
0.0
 10
58.848842
 20
186.400326
 30
0.0
  0
SPLINE
  5
14a
100
AcDbEntity
  8
braids
 62
1
100
AcDbSpline
 70
8
 71
3
 72
8
 73
4
 74
0
 40
0
 40
0
 40
0
 40
0
 40
1
 40
1
 40
1
 40
1
 10
58.848842
 20
186.400326
 30
0.0
 10
59.483881
 20
185.765614
 30
0.0
 10
59.840643
 20
184.904759
 30
0.0
 10
59.840643
 20
184.007141
 30
0.0
  0
LWPOLYLINE
  5
14b
100
AcDbEntity
  8
braids
 62
1
100
AcDbPolyline
 90
2
 70
1
 10
92.887085
 20
184.007141
 30
0.0
 10
92.887085
 20
184.007141
 30
0.0
  0
SPLINE
  5
14c
100
AcDbEntity
  8
braids
 62
1
100
AcDbSpline
 70
8
 71
3
 72
8
 73
4
 74
0
 40
0
 40
0
 40
0
 40
0
 40
1
 40
1
 40
1
 40
1
 10
76.705749
 20
203.113788
 30
0.0
 10
76.705749
 20
201.111081
 30
0.0
 10
75.081397
 20
199.487566
 30
0.0
 10
73.077657
 20
199.487566
 30
0.0
  0
SPLINE
  5
14d
100
AcDbEntity
  8
braids
 62
1
100
AcDbSpline
 70
8
 71
3
 72
8
 73
4
 74
0
 40
0
 40
0
 40
0
 40
0
 40
1
 40
1
 40
1
 40
1
 10
73.077657
 20
199.487566
 30
0.0
 10
71.073917
 20
199.487567
 30
0.0
 10
69.449565
 20
201.111081
 30
0.0
 10
69.449565
 20
203.113788
 30
0.0
  0
SPLINE
  5
14e
100
AcDbEntity
  8
braids
 62
1
100
AcDbSpline
 70
8
 71
3
 72
8
 73
4
 74
0
 40
0
 40
0
 40
0
 40
0
 40
1
 40
1
 40
1
 40
1
 10
69.449565
 20
203.113788
 30
0.0
 10
69.449565
 20
205.116495
 30
0.0
 10
71.073917
 20
206.740010
 30
0.0
 10
73.077657
 20
206.740010
 30
0.0
  0
SPLINE
  5
14f
100
AcDbEntity
  8
braids
 62
1
100
AcDbSpline
 70
8
 71
3
 72
8
 73
4
 74
0
 40
0
 40
0
 40
0
 40
0
 40
1
 40
1
 40
1
 40
1
 10
73.077657
 20
206.740010
 30
0.0
 10
75.081397
 20
206.740010
 30
0.0
 10
76.705749
 20
205.116495
 30
0.0
 10
76.705749
 20
203.113788
 30
0.0
  0
LWPOLYLINE
  5
150
100
AcDbEntity
  8
braids
 62
1
100
AcDbPolyline
 90
2
 70
1
 10
59.840643
 20
184.007141
 30
0.0
 10
59.840643
 20
184.007141
 30
0.0
  0
SPLINE
  5
151
100
AcDbEntity
  8
braids
 62
1
100
AcDbSpline
 70
8
 71
3
 72
8
 73
4
 74
0
 40
0
 40
0
 40
0
 40
0
 40
1
 40
1
 40
1
 40
1
 10
43.664810
 20
203.113788
 30
0.0
 10
43.664810
 20
201.111081
 30
0.0
 10
42.040458
 20
199.487566
 30
0.0
 10
40.036718
 20
199.487566
 30
0.0
  0
SPLINE
  5
152
100
AcDbEntity
  8
braids
 62
1
100
AcDbSpline
 70
8
 71
3
 72
8
 73
4
 74
0
 40
0
 40
0
 40
0
 40
0
 40
1
 40
1
 40
1
 40
1
 10
40.036718
 20
199.487566
 30
0.0
 10
38.032978
 20
199.487567
 30
0.0
 10
36.408626
 20
201.111081
 30
0.0
 10
36.408626
 20
203.113788
 30
0.0
  0
SPLINE
  5
153
100
AcDbEntity
  8
braids
 62
1
100
AcDbSpline
 70
8
 71
3
 72
8
 73
4
 74
0
 40
0
 40
0
 40
0
 40
0
 40
1
 40
1
 40
1
 40
1
 10
36.408626
 20
203.113788
 30
0.0
 10
36.408626
 20
205.116495
 30
0.0
 10
38.032978
 20
206.740010
 30
0.0
 10
40.036718
 20
206.740010
 30
0.0
  0
SPLINE
  5
154
100
AcDbEntity
  8
braids
 62
1
100
AcDbSpline
 70
8
 71
3
 72
8
 73
4
 74
0
 40
0
 40
0
 40
0
 40
0
 40
1
 40
1
 40
1
 40
1
 10
40.036718
 20
206.740010
 30
0.0
 10
42.040458
 20
206.740010
 30
0.0
 10
43.664810
 20
205.116495
 30
0.0
 10
43.664810
 20
203.113788
 30
0.0
  0
LWPOLYLINE
  5
155
100
AcDbEntity
  8
braids
 62
1
100
AcDbPolyline
 90
2
 70
1
 10
76.705749
 20
203.113788
 30
0.0
 10
76.705749
 20
203.113788
 30
0.0
  0
SPLINE
  5
156
100
AcDbEntity
  8
braids
 62
1
100
AcDbSpline
 70
8
 71
3
 72
8
 73
4
 74
0
 40
0
 40
0
 40
0
 40
0
 40
1
 40
1
 40
1
 40
1
 10
90.090864
 20
113.673145
 30
0.0
 10
90.090864
 20
115.377135
 30
0.0
 10
91.472220
 20
116.758490
 30
0.0
 10
93.176209
 20
116.758490
 30
0.0
  0
SPLINE
  5
157
100
AcDbEntity
  8
braids
 62
1
100
AcDbSpline
 70
8
 71
3
 72
8
 73
4
 74
0
 40
0
 40
0
 40
0
 40
0
 40
1
 40
1
 40
1
 40
1
 10
93.176209
 20
116.758490
 30
0.0
 10
94.880198
 20
116.758490
 30
0.0
 10
96.261553
 20
115.377135
 30
0.0
 10
96.261553
 20
113.673145
 30
0.0
  0
SPLINE
  5
158
100
AcDbEntity
  8
braids
 62
1
100
AcDbSpline
 70
8
 71
3
 72
8
 73
4
 74
0
 40
0
 40
0
 40
0
 40
0
 40
1
 40
1
 40
1
 40
1
 10
96.261553
 20
113.673145
 30
0.0
 10
96.261553
 20
111.969156
 30
0.0
 10
94.880198
 20
110.587801
 30
0.0
 10
93.176209
 20
110.587801
 30
0.0
  0
SPLINE
  5
159
100
AcDbEntity
  8
braids
 62
1
100
AcDbSpline
 70
8
 71
3
 72
8
 73
4
 74
0
 40
0
 40
0
 40
0
 40
0
 40
1
 40
1
 40
1
 40
1
 10
93.176209
 20
110.587801
 30
0.0
 10
91.472220
 20
110.587801
 30
0.0
 10
90.090864
 20
111.969156
 30
0.0
 10
90.090864
 20
113.673145
 30
0.0
  0
LWPOLYLINE
  5
15a
100
AcDbEntity
  8
braids
 62
1
100
AcDbPolyline
 90
2
 70
1
 10
43.664810
 20
203.113788
 30
0.0
 10
43.664810
 20
203.113788
 30
0.0
  0
SPLINE
  5
15b
100
AcDbEntity
  8
braids
 62
1
100
AcDbSpline
 70
8
 71
3
 72
8
 73
4
 74
0
 40
0
 40
0
 40
0
 40
0
 40
1
 40
1
 40
1
 40
1
 10
96.150076
 20
125.529115
 30
0.0
 10
96.150076
 20
123.825125
 30
0.0
 10
94.768721
 20
122.443770
 30
0.0
 10
93.064732
 20
122.443770
 30
0.0
  0
SPLINE
  5
15c
100
AcDbEntity
  8
braids
 62
1
100
AcDbSpline
 70
8
 71
3
 72
8
 73
4
 74
0
 40
0
 40
0
 40
0
 40
0
 40
1
 40
1
 40
1
 40
1
 10
93.064732
 20
122.443770
 30
0.0
 10
91.360743
 20
122.443770
 30
0.0
 10
89.979387
 20
123.825125
 30
0.0
 10
89.979387
 20
125.529115
 30
0.0
  0
SPLINE
  5
15d
100
AcDbEntity
  8
braids
 62
1
100
AcDbSpline
 70
8
 71
3
 72
8
 73
4
 74
0
 40
0
 40
0
 40
0
 40
0
 40
1
 40
1
 40
1
 40
1
 10
89.979387
 20
125.529115
 30
0.0
 10
89.979387
 20
127.233104
 30
0.0
 10
91.360743
 20
128.614459
 30
0.0
 10
93.064732
 20
128.614459
 30
0.0
  0
SPLINE
  5
15e
100
AcDbEntity
  8
braids
 62
1
100
AcDbSpline
 70
8
 71
3
 72
8
 73
4
 74
0
 40
0
 40
0
 40
0
 40
0
 40
1
 40
1
 40
1
 40
1
 10
93.064732
 20
128.614459
 30
0.0
 10
94.768721
 20
128.614459
 30
0.0
 10
96.150076
 20
127.233104
 30
0.0
 10
96.150076
 20
125.529115
 30
0.0
  0
LWPOLYLINE
  5
15f
100
AcDbEntity
  8
braids
 62
1
100
AcDbPolyline
 90
2
 70
1
 10
90.090864
 20
113.673145
 30
0.0
 10
90.090864
 20
113.673145
 30
0.0
  0
SPLINE
  5
160
100
AcDbEntity
  8
braids
 62
1
100
AcDbSpline
 70
8
 71
3
 72
8
 73
4
 74
0
 40
0
 40
0
 40
0
 40
0
 40
1
 40
1
 40
1
 40
1
 10
78.732131
 20
113.673145
 30
0.0
 10
78.732131
 20
115.377135
 30
0.0
 10
80.113486
 20
116.758490
 30
0.0
 10
81.817475
 20
116.758490
 30
0.0
  0
SPLINE
  5
161
100
AcDbEntity
  8
braids
 62
1
100
AcDbSpline
 70
8
 71
3
 72
8
 73
4
 74
0
 40
0
 40
0
 40
0
 40
0
 40
1
 40
1
 40
1
 40
1
 10
81.817475
 20
116.758490
 30
0.0
 10
83.521465
 20
116.758490
 30
0.0
 10
84.902820
 20
115.377135
 30
0.0
 10
84.902820
 20
113.673145
 30
0.0
  0
SPLINE
  5
162
100
AcDbEntity
  8
braids
 62
1
100
AcDbSpline
 70
8
 71
3
 72
8
 73
4
 74
0
 40
0
 40
0
 40
0
 40
0
 40
1
 40
1
 40
1
 40
1
 10
84.902820
 20
113.673145
 30
0.0
 10
84.902820
 20
111.969156
 30
0.0
 10
83.521465
 20
110.587801
 30
0.0
 10
81.817475
 20
110.587801
 30
0.0
  0
SPLINE
  5
163
100
AcDbEntity
  8
braids
 62
1
100
AcDbSpline
 70
8
 71
3
 72
8
 73
4
 74
0
 40
0
 40
0
 40
0
 40
0
 40
1
 40
1
 40
1
 40
1
 10
81.817475
 20
110.587801
 30
0.0
 10
80.113486
 20
110.587801
 30
0.0
 10
78.732131
 20
111.969156
 30
0.0
 10
78.732131
 20
113.673145
 30
0.0
  0
LWPOLYLINE
  5
164
100
AcDbEntity
  8
braids
 62
1
100
AcDbPolyline
 90
2
 70
1
 10
96.150076
 20
125.529115
 30
0.0
 10
96.150076
 20
125.529115
 30
0.0
  0
SPLINE
  5
165
100
AcDbEntity
  8
braids
 62
1
100
AcDbSpline
 70
8
 71
3
 72
8
 73
4
 74
0
 40
0
 40
0
 40
0
 40
0
 40
1
 40
1
 40
1
 40
1
 10
67.314483
 20
113.673145
 30
0.0
 10
67.314483
 20
115.377135
 30
0.0
 10
68.695839
 20
116.758490
 30
0.0
 10
70.399828
 20
116.758490
 30
0.0
  0
SPLINE
  5
166
100
AcDbEntity
  8
braids
 62
1
100
AcDbSpline
 70
8
 71
3
 72
8
 73
4
 74
0
 40
0
 40
0
 40
0
 40
0
 40
1
 40
1
 40
1
 40
1
 10
70.399828
 20
116.758490
 30
0.0
 10
72.103817
 20
116.758490
 30
0.0
 10
73.485173
 20
115.377135
 30
0.0
 10
73.485173
 20
113.673145
 30
0.0
  0
SPLINE
  5
167
100
AcDbEntity
  8
braids
 62
1
100
AcDbSpline
 70
8
 71
3
 72
8
 73
4
 74
0
 40
0
 40
0
 40
0
 40
0
 40
1
 40
1
 40
1
 40
1
 10
73.485173
 20
113.673145
 30
0.0
 10
73.485173
 20
111.969156
 30
0.0
 10
72.103817
 20
110.587801
 30
0.0
 10
70.399828
 20
110.587801
 30
0.0
  0
SPLINE
  5
168
100
AcDbEntity
  8
braids
 62
1
100
AcDbSpline
 70
8
 71
3
 72
8
 73
4
 74
0
 40
0
 40
0
 40
0
 40
0
 40
1
 40
1
 40
1
 40
1
 10
70.399828
 20
110.587801
 30
0.0
 10
68.695839
 20
110.587801
 30
0.0
 10
67.314483
 20
111.969156
 30
0.0
 10
67.314483
 20
113.673145
 30
0.0
  0
LWPOLYLINE
  5
169
100
AcDbEntity
  8
braids
 62
1
100
AcDbPolyline
 90
2
 70
1
 10
78.732131
 20
113.673145
 30
0.0
 10
78.732131
 20
113.673145
 30
0.0
  0
SPLINE
  5
16a
100
AcDbEntity
  8
braids
 62
1
100
AcDbSpline
 70
8
 71
3
 72
8
 73
4
 74
0
 40
0
 40
0
 40
0
 40
0
 40
1
 40
1
 40
1
 40
1
 10
84.732429
 20
125.529115
 30
0.0
 10
84.732429
 20
123.825125
 30
0.0
 10
83.351074
 20
122.443770
 30
0.0
 10
81.647084
 20
122.443770
 30
0.0
  0
SPLINE
  5
16b
100
AcDbEntity
  8
braids
 62
1
100
AcDbSpline
 70
8
 71
3
 72
8
 73
4
 74
0
 40
0
 40
0
 40
0
 40
0
 40
1
 40
1
 40
1
 40
1
 10
81.647084
 20
122.443770
 30
0.0
 10
79.943095
 20
122.443770
 30
0.0
 10
78.561740
 20
123.825125
 30
0.0
 10
78.561740
 20
125.529115
 30
0.0
  0
SPLINE
  5
16c
100
AcDbEntity
  8
braids
 62
1
100
AcDbSpline
 70
8
 71
3
 72
8
 73
4
 74
0
 40
0
 40
0
 40
0
 40
0
 40
1
 40
1
 40
1
 40
1
 10
78.561740
 20
125.529115
 30
0.0
 10
78.561740
 20
127.233104
 30
0.0
 10
79.943095
 20
128.614459
 30
0.0
 10
81.647084
 20
128.614459
 30
0.0
  0
SPLINE
  5
16d
100
AcDbEntity
  8
braids
 62
1
100
AcDbSpline
 70
8
 71
3
 72
8
 73
4
 74
0
 40
0
 40
0
 40
0
 40
0
 40
1
 40
1
 40
1
 40
1
 10
81.647084
 20
128.614459
 30
0.0
 10
83.351074
 20
128.614459
 30
0.0
 10
84.732429
 20
127.233104
 30
0.0
 10
84.732429
 20
125.529115
 30
0.0
  0
LWPOLYLINE
  5
16e
100
AcDbEntity
  8
braids
 62
1
100
AcDbPolyline
 90
2
 70
1
 10
67.314483
 20
113.673145
 30
0.0
 10
67.314483
 20
113.673145
 30
0.0
  0
SPLINE
  5
16f
100
AcDbEntity
  8
braids
 62
1
100
AcDbSpline
 70
8
 71
3
 72
8
 73
4
 74
0
 40
0
 40
0
 40
0
 40
0
 40
1
 40
1
 40
1
 40
1
 10
73.346038
 20
125.529115
 30
0.0
 10
73.346038
 20
123.825125
 30
0.0
 10
71.964682
 20
122.443770
 30
0.0
 10
70.260693
 20
122.443770
 30
0.0
  0
SPLINE
  5
170
100
AcDbEntity
  8
braids
 62
1
100
AcDbSpline
 70
8
 71
3
 72
8
 73
4
 74
0
 40
0
 40
0
 40
0
 40
0
 40
1
 40
1
 40
1
 40
1
 10
70.260693
 20
122.443770
 30
0.0
 10
68.556704
 20
122.443770
 30
0.0
 10
67.175349
 20
123.825125
 30
0.0
 10
67.175349
 20
125.529115
 30
0.0
  0
SPLINE
  5
171
100
AcDbEntity
  8
braids
 62
1
100
AcDbSpline
 70
8
 71
3
 72
8
 73
4
 74
0
 40
0
 40
0
 40
0
 40
0
 40
1
 40
1
 40
1
 40
1
 10
67.175349
 20
125.529115
 30
0.0
 10
67.175349
 20
127.233104
 30
0.0
 10
68.556704
 20
128.614459
 30
0.0
 10
70.260693
 20
128.614459
 30
0.0
  0
SPLINE
  5
172
100
AcDbEntity
  8
braids
 62
1
100
AcDbSpline
 70
8
 71
3
 72
8
 73
4
 74
0
 40
0
 40
0
 40
0
 40
0
 40
1
 40
1
 40
1
 40
1
 10
70.260693
 20
128.614459
 30
0.0
 10
71.964682
 20
128.614459
 30
0.0
 10
73.346038
 20
127.233104
 30
0.0
 10
73.346038
 20
125.529115
 30
0.0
  0
LWPOLYLINE
  5
173
100
AcDbEntity
  8
braids
 62
1
100
AcDbPolyline
 90
2
 70
1
 10
84.732429
 20
125.529115
 30
0.0
 10
84.732429
 20
125.529115
 30
0.0
  0
SPLINE
  5
174
100
AcDbEntity
  8
braids
 62
1
100
AcDbSpline
 70
8
 71
3
 72
8
 73
4
 74
0
 40
0
 40
0
 40
0
 40
0
 40
1
 40
1
 40
1
 40
1
 10
55.787193
 20
113.673145
 30
0.0
 10
55.787193
 20
115.377135
 30
0.0
 10
57.168548
 20
116.758490
 30
0.0
 10
58.872537
 20
116.758490
 30
0.0
  0
SPLINE
  5
175
100
AcDbEntity
  8
braids
 62
1
100
AcDbSpline
 70
8
 71
3
 72
8
 73
4
 74
0
 40
0
 40
0
 40
0
 40
0
 40
1
 40
1
 40
1
 40
1
 10
58.872537
 20
116.758490
 30
0.0
 10
60.576527
 20
116.758490
 30
0.0
 10
61.957882
 20
115.377135
 30
0.0
 10
61.957882
 20
113.673145
 30
0.0
  0
SPLINE
  5
176
100
AcDbEntity
  8
braids
 62
1
100
AcDbSpline
 70
8
 71
3
 72
8
 73
4
 74
0
 40
0
 40
0
 40
0
 40
0
 40
1
 40
1
 40
1
 40
1
 10
61.957882
 20
113.673145
 30
0.0
 10
61.957882
 20
111.969156
 30
0.0
 10
60.576527
 20
110.587801
 30
0.0
 10
58.872537
 20
110.587801
 30
0.0
  0
SPLINE
  5
177
100
AcDbEntity
  8
braids
 62
1
100
AcDbSpline
 70
8
 71
3
 72
8
 73
4
 74
0
 40
0
 40
0
 40
0
 40
0
 40
1
 40
1
 40
1
 40
1
 10
58.872537
 20
110.587801
 30
0.0
 10
57.168548
 20
110.587801
 30
0.0
 10
55.787193
 20
111.969156
 30
0.0
 10
55.787193
 20
113.673145
 30
0.0
  0
LWPOLYLINE
  5
178
100
AcDbEntity
  8
braids
 62
1
100
AcDbPolyline
 90
2
 70
1
 10
73.346038
 20
125.529115
 30
0.0
 10
73.346038
 20
125.529115
 30
0.0
  0
SPLINE
  5
179
100
AcDbEntity
  8
braids
 62
1
100
AcDbSpline
 70
8
 71
3
 72
8
 73
4
 74
0
 40
0
 40
0
 40
0
 40
0
 40
1
 40
1
 40
1
 40
1
 10
61.967972
 20
125.529115
 30
0.0
 10
61.967972
 20
123.825125
 30
0.0
 10
60.586617
 20
122.443770
 30
0.0
 10
58.882628
 20
122.443770
 30
0.0
  0
SPLINE
  5
17a
100
AcDbEntity
  8
braids
 62
1
100
AcDbSpline
 70
8
 71
3
 72
8
 73
4
 74
0
 40
0
 40
0
 40
0
 40
0
 40
1
 40
1
 40
1
 40
1
 10
58.882628
 20
122.443770
 30
0.0
 10
57.178638
 20
122.443770
 30
0.0
 10
55.797283
 20
123.825125
 30
0.0
 10
55.797283
 20
125.529115
 30
0.0
  0
SPLINE
  5
17b
100
AcDbEntity
  8
braids
 62
1
100
AcDbSpline
 70
8
 71
3
 72
8
 73
4
 74
0
 40
0
 40
0
 40
0
 40
0
 40
1
 40
1
 40
1
 40
1
 10
55.797283
 20
125.529115
 30
0.0
 10
55.797283
 20
127.233104
 30
0.0
 10
57.178638
 20
128.614459
 30
0.0
 10
58.882628
 20
128.614459
 30
0.0
  0
SPLINE
  5
17c
100
AcDbEntity
  8
braids
 62
1
100
AcDbSpline
 70
8
 71
3
 72
8
 73
4
 74
0
 40
0
 40
0
 40
0
 40
0
 40
1
 40
1
 40
1
 40
1
 10
58.882628
 20
128.614459
 30
0.0
 10
60.586617
 20
128.614459
 30
0.0
 10
61.967972
 20
127.233104
 30
0.0
 10
61.967972
 20
125.529115
 30
0.0
  0
LWPOLYLINE
  5
17d
100
AcDbEntity
  8
braids
 62
1
100
AcDbPolyline
 90
2
 70
1
 10
55.787193
 20
113.673145
 30
0.0
 10
55.787193
 20
113.673145
 30
0.0
  0
SPLINE
  5
17e
100
AcDbEntity
  8
braids
 62
1
100
AcDbSpline
 70
8
 71
3
 72
8
 73
4
 74
0
 40
0
 40
0
 40
0
 40
0
 40
1
 40
1
 40
1
 40
1
 10
44.408845
 20
113.673145
 30
0.0
 10
44.408845
 20
115.377135
 30
0.0
 10
45.790200
 20
116.758490
 30
0.0
 10
47.494190
 20
116.758490
 30
0.0
  0
SPLINE
  5
17f
100
AcDbEntity
  8
braids
 62
1
100
AcDbSpline
 70
8
 71
3
 72
8
 73
4
 74
0
 40
0
 40
0
 40
0
 40
0
 40
1
 40
1
 40
1
 40
1
 10
47.494190
 20
116.758490
 30
0.0
 10
49.198179
 20
116.758490
 30
0.0
 10
50.579534
 20
115.377135
 30
0.0
 10
50.579534
 20
113.673145
 30
0.0
  0
SPLINE
  5
180
100
AcDbEntity
  8
braids
 62
1
100
AcDbSpline
 70
8
 71
3
 72
8
 73
4
 74
0
 40
0
 40
0
 40
0
 40
0
 40
1
 40
1
 40
1
 40
1
 10
50.579534
 20
113.673145
 30
0.0
 10
50.579534
 20
111.969156
 30
0.0
 10
49.198179
 20
110.587801
 30
0.0
 10
47.494190
 20
110.587801
 30
0.0
  0
SPLINE
  5
181
100
AcDbEntity
  8
braids
 62
1
100
AcDbSpline
 70
8
 71
3
 72
8
 73
4
 74
0
 40
0
 40
0
 40
0
 40
0
 40
1
 40
1
 40
1
 40
1
 10
47.494190
 20
110.587801
 30
0.0
 10
45.790200
 20
110.587801
 30
0.0
 10
44.408845
 20
111.969156
 30
0.0
 10
44.408845
 20
113.673145
 30
0.0
  0
LWPOLYLINE
  5
182
100
AcDbEntity
  8
braids
 62
1
100
AcDbPolyline
 90
2
 70
1
 10
61.967972
 20
125.529115
 30
0.0
 10
61.967972
 20
125.529115
 30
0.0
  0
SPLINE
  5
183
100
AcDbEntity
  8
braids
 62
1
100
AcDbSpline
 70
8
 71
3
 72
8
 73
4
 74
0
 40
0
 40
0
 40
0
 40
0
 40
1
 40
1
 40
1
 40
1
 10
50.534873
 20
125.529115
 30
0.0
 10
50.534873
 20
123.825125
 30
0.0
 10
49.153518
 20
122.443770
 30
0.0
 10
47.449529
 20
122.443770
 30
0.0
  0
SPLINE
  5
184
100
AcDbEntity
  8
braids
 62
1
100
AcDbSpline
 70
8
 71
3
 72
8
 73
4
 74
0
 40
0
 40
0
 40
0
 40
0
 40
1
 40
1
 40
1
 40
1
 10
47.449529
 20
122.443770
 30
0.0
 10
45.745539
 20
122.443770
 30
0.0
 10
44.364184
 20
123.825125
 30
0.0
 10
44.364184
 20
125.529115
 30
0.0
  0
SPLINE
  5
185
100
AcDbEntity
  8
braids
 62
1
100
AcDbSpline
 70
8
 71
3
 72
8
 73
4
 74
0
 40
0
 40
0
 40
0
 40
0
 40
1
 40
1
 40
1
 40
1
 10
44.364184
 20
125.529115
 30
0.0
 10
44.364184
 20
127.233104
 30
0.0
 10
45.745539
 20
128.614459
 30
0.0
 10
47.449529
 20
128.614459
 30
0.0
  0
SPLINE
  5
186
100
AcDbEntity
  8
braids
 62
1
100
AcDbSpline
 70
8
 71
3
 72
8
 73
4
 74
0
 40
0
 40
0
 40
0
 40
0
 40
1
 40
1
 40
1
 40
1
 10
47.449529
 20
128.614459
 30
0.0
 10
49.153518
 20
128.614459
 30
0.0
 10
50.534873
 20
127.233104
 30
0.0
 10
50.534873
 20
125.529115
 30
0.0
  0
LWPOLYLINE
  5
187
100
AcDbEntity
  8
braids
 62
1
100
AcDbPolyline
 90
2
 70
1
 10
44.408845
 20
113.673145
 30
0.0
 10
44.408845
 20
113.673145
 30
0.0
  0
SPLINE
  5
188
100
AcDbEntity
  8
braids
 62
1
100
AcDbSpline
 70
8
 71
3
 72
8
 73
4
 74
0
 40
0
 40
0
 40
0
 40
0
 40
1
 40
1
 40
1
 40
1
 10
39.432362
 20
125.529114
 30
0.0
 10
39.432362
 20
123.638750
 30
0.0
 10
37.899922
 20
122.106313
 30
0.0
 10
36.009555
 20
122.106313
 30
0.0
  0
SPLINE
  5
189
100
AcDbEntity
  8
braids
 62
1
100
AcDbSpline
 70
8
 71
3
 72
8
 73
4
 74
0
 40
0
 40
0
 40
0
 40
0
 40
1
 40
1
 40
1
 40
1
 10
36.009555
 20
122.106313
 30
0.0
 10
34.119194
 20
122.106313
 30
0.0
 10
32.586754
 20
123.638755
 30
0.0
 10
32.586754
 20
125.529114
 30
0.0
  0
SPLINE
  5
18a
100
AcDbEntity
  8
braids
 62
1
100
AcDbSpline
 70
8
 71
3
 72
8
 73
4
 74
0
 40
0
 40
0
 40
0
 40
0
 40
1
 40
1
 40
1
 40
1
 10
32.586754
 20
125.529114
 30
0.0
 10
32.586754
 20
127.419477
 30
0.0
 10
34.119194
 20
128.951920
 30
0.0
 10
36.009555
 20
128.951920
 30
0.0
  0
SPLINE
  5
18b
100
AcDbEntity
  8
braids
 62
1
100
AcDbSpline
 70
8
 71
3
 72
8
 73
4
 74
0
 40
0
 40
0
 40
0
 40
0
 40
1
 40
1
 40
1
 40
1
 10
36.009555
 20
128.951920
 30
0.0
 10
37.899922
 20
128.951920
 30
0.0
 10
39.432362
 20
127.419477
 30
0.0
 10
39.432362
 20
125.529114
 30
0.0
  0
LWPOLYLINE
  5
18c
100
AcDbEntity
  8
braids
 62
1
100
AcDbPolyline
 90
2
 70
1
 10
50.534873
 20
125.529115
 30
0.0
 10
50.534873
 20
125.529115
 30
0.0
  0
SPLINE
  5
18d
100
AcDbEntity
  8
braids
 62
1
100
AcDbSpline
 70
8
 71
3
 72
8
 73
4
 74
0
 40
0
 40
0
 40
0
 40
0
 40
1
 40
1
 40
1
 40
1
 10
32.976028
 20
113.673145
 30
0.0
 10
32.976028
 20
115.377135
 30
0.0
 10
34.357384
 20
116.758490
 30
0.0
 10
36.061373
 20
116.758490
 30
0.0
  0
SPLINE
  5
18e
100
AcDbEntity
  8
braids
 62
1
100
AcDbSpline
 70
8
 71
3
 72
8
 73
4
 74
0
 40
0
 40
0
 40
0
 40
0
 40
1
 40
1
 40
1
 40
1
 10
36.061373
 20
116.758490
 30
0.0
 10
37.765362
 20
116.758490
 30
0.0
 10
39.146717
 20
115.377135
 30
0.0
 10
39.146717
 20
113.673145
 30
0.0
  0
SPLINE
  5
18f
100
AcDbEntity
  8
braids
 62
1
100
AcDbSpline
 70
8
 71
3
 72
8
 73
4
 74
0
 40
0
 40
0
 40
0
 40
0
 40
1
 40
1
 40
1
 40
1
 10
39.146717
 20
113.673145
 30
0.0
 10
39.146717
 20
111.969156
 30
0.0
 10
37.765362
 20
110.587801
 30
0.0
 10
36.061373
 20
110.587801
 30
0.0
  0
SPLINE
  5
190
100
AcDbEntity
  8
braids
 62
1
100
AcDbSpline
 70
8
 71
3
 72
8
 73
4
 74
0
 40
0
 40
0
 40
0
 40
0
 40
1
 40
1
 40
1
 40
1
 10
36.061373
 20
110.587801
 30
0.0
 10
34.357384
 20
110.587801
 30
0.0
 10
32.976028
 20
111.969156
 30
0.0
 10
32.976028
 20
113.673145
 30
0.0
  0
LWPOLYLINE
  5
191
100
AcDbEntity
  8
braids
 62
1
100
AcDbPolyline
 90
2
 70
1
 10
39.432362
 20
125.529114
 30
0.0
 10
39.432362
 20
125.529114
 30
0.0
  0
LWPOLYLINE
  5
192
100
AcDbEntity
  8
braids
 62
1
100
AcDbPolyline
 90
2
 70
1
 10
32.976028
 20
113.673145
 30
0.0
 10
32.976028
 20
113.673145
 30
0.0
  0
ENDSEC
  0
SECTION
  2
OBJECTS
  0
DICTIONARY
  5
C
330
0
100
AcDbDictionary
  3
ACAD_GROUP
350
D
  3
ACAD_MLINESTYLE
350
17
  0
DICTIONARY
  5
D
330
C
100
AcDbDictionary
  0
DICTIONARY
  5
1A
330
C
100
AcDbDictionary
  0
DICTIONARY
  5
17
330
C
100
AcDbDictionary
  3
STANDARD
350
18
  0
DICTIONARY
  5
19
330
C
100
AcDbDictionary
  0
ENDSEC
  0
EOF
